<svg xmlns="http://www.w3.org/2000/svg" id="Layer_1" viewBox="0 0 100 100"><defs><style>.cls-1{fill:none;stroke:#5384fb;stroke-miterlimit:10;stroke-width:2px;}</style></defs><g><g><path class="cls-1" d="M62.56,49.8c0,9.52-6.81,17.24-12.56,17.24-4.89,0-12.56-7.72-12.56-17.24s5.62-14.26,12.56-14.26,12.56,4.74,12.56,14.26Z"/><path class="cls-1" d="M31.03,71.13c2.4-3.99,6.03-7.17,10.36-9"/><path class="cls-1" d="M58.61,62.13c7.94,3.36,13.51,11.22,13.51,20.38v15.45H27.88v-15.45c0-4.16,1.15-8.06,3.15-11.38"/></g><g><path class="cls-1" d="M31.04,58.09c0,7.88-5.64,14.27-10.4,14.27-4.05,0-10.4-6.39-10.4-14.27s4.65-11.8,10.4-11.8,10.4,3.92,10.4,11.8Z"/><path class="cls-1" d="M38.95,97.96H2.33v-12.79c0-7.58,4.61-14.09,11.18-16.87"/><path class="cls-1" d="M27.77,68.3c1.33,.56,2.57,1.27,3.71,2.11"/></g><g><path class="cls-1" d="M89.76,58.09c0,7.88-5.64,14.27-10.4,14.27-4.05,0-10.4-6.39-10.4-14.27s4.65-11.8,10.4-11.8,10.4,3.92,10.4,11.8Z"/><path class="cls-1" d="M68.29,70.59c1.21-.92,2.53-1.69,3.95-2.29"/><path class="cls-1" d="M86.49,68.3c6.57,2.78,11.18,9.29,11.18,16.87v12.79H61.05"/></g></g><g><polygon class="cls-1" points="50 6.96 52.7 13.25 59.52 13.88 54.38 18.39 55.89 25.07 50 21.57 44.11 25.07 45.62 18.39 40.48 13.88 47.3 13.25 50 6.96"/><polygon class="cls-1" points="28.49 10.46 30.15 14.32 34.33 14.7 31.17 17.47 32.1 21.57 28.49 19.42 24.88 21.57 25.8 17.47 22.64 14.7 26.83 14.32 28.49 10.46"/><polygon class="cls-1" points="71.51 10.46 73.17 14.32 77.36 14.7 74.2 17.47 75.12 21.57 71.51 19.42 67.9 21.57 68.83 17.47 65.67 14.7 69.85 14.32 71.51 10.46"/></g><rect class="cls-1" x="10.24" y="2.04" width="79.51" height="27.95" rx="13.98" ry="13.98"/></svg>