<svg xmlns="http://www.w3.org/2000/svg" id="Layer_1" viewBox="0 0 100 100"><defs><style>.cls-1{fill:#5384fb;}.cls-2{fill:none;stroke:#5384fb;stroke-miterlimit:10;stroke-width:2px;}</style></defs><g><g><path class="cls-2" d="M32.53,73.1c-1.7-1.38-3.42-2.73-5.12-4.11-1.51-1.23-2.41-2.94-3.49-4.51-.99-1.43-1.94-2.9-2.98-4.3-1.11-1.5-1.09-3.09-.48-4.72,.25-.67,1.05-.88,1.63-1.22,1.91-1.12,3.77-.67,5.22,1.22,2.03,2.66,4.03,5.33,6.06,7.99,.46,.6,.97,1.13,1.63,1.56,1.77,1.15,3.51,2.35,5.23,3.58,1.64,1.17,2.39,2.86,2.8,4.81,.51,2.43-.26,4.69-.76,6.97-.67,3.06-.09,18.14-.09,18.14H21.36s-.53-12.56-.69-14.96c-.07-1.04-.33-1.9-1.04-2.67-1.93-2.08-3.96-4.06-5.65-6.35-2.68-3.61-4.68-7.56-6.15-11.79-1.1-3.15-2.25-6.29-3.38-9.43-.32-.9-.41-1.83-.41-2.77,0-3.69-.02-7.38,.01-11.07,0-.82-.24-1.58-.07-2.47,.48-2.45,2.15-3.76,4.57-3.28,.31,.06,.64,.04,.92,.21"/><path class="cls-2" d="M16.44,66.22c-.52-1.74-1.36-3.35-2.06-5.02-1.25-3.01-2.45-6.05-3.83-9.01-.52-1.1-.57-2.17-.57-3.3,0-4.07,0-8.13,0-12.2,0-.86,0-1.71-.27-2.57-.41-1.34,1.27-4.1,2.63-4.6,1.95-.72,3.85-.24,4.81,1.23,.48,.74,.62,1.58,.62,2.46,0,4.58,.02,9.16-.01,13.74-.01,1.67-.05,3.32,.83,4.82,.65,1.11,.84,2.47,1.84,3.39"/></g><g><path class="cls-2" d="M67.47,73.1c1.7-1.38,3.42-2.73,5.12-4.11,1.51-1.23,2.41-2.94,3.49-4.51,.99-1.43,1.94-2.9,2.98-4.3,1.11-1.5,1.09-3.09,.48-4.72-.25-.67-1.05-.88-1.63-1.22-1.91-1.12-3.77-.67-5.22,1.22-2.03,2.66-4.03,5.33-6.06,7.99-.46,.6-.97,1.13-1.63,1.56-1.77,1.15-3.51,2.35-5.23,3.58-1.64,1.17-2.39,2.86-2.8,4.81-.51,2.43,.26,4.69,.76,6.97,.67,3.06,.09,18.14,.09,18.14h20.81s.53-12.56,.69-14.96c.07-1.04,.33-1.9,1.04-2.67,1.93-2.08,3.96-4.06,5.65-6.35,2.68-3.61,4.68-7.56,6.15-11.79,1.1-3.15,2.25-6.29,3.38-9.43,.32-.9,.41-1.83,.41-2.77,0-3.69,.02-7.38-.01-11.07,0-.82,.24-1.58,.07-2.47-.48-2.45-2.15-3.76-4.57-3.28-.31,.06-.64,.04-.92,.21"/><path class="cls-2" d="M83.56,66.22c.52-1.74,1.36-3.35,2.06-5.02,1.25-3.01,2.45-6.05,3.83-9.01,.52-1.1,.57-2.17,.57-3.3,0-4.07,0-8.13,0-12.2,0-.86,0-1.71,.27-2.57,.41-1.34-1.27-4.1-2.63-4.6-1.95-.72-3.85-.24-4.81,1.23-.48,.74-.62,1.58-.62,2.46,0,4.58-.02,9.16,.01,13.74,.01,1.67,.05,3.32-.83,4.82-.65,1.11-.84,2.47-1.84,3.39"/></g></g><path class="cls-2" d="M72.9,12.04c0,.29-.09,13.98,.03,20.55,.1,6.09-1.88,11.38-5.73,16-4.44,5.33-9.96,9.13-16.56,11.31-.36,.12-.82,.17-1.17,.05-8.54-2.96-15.37-8.05-19.82-16.05-1.71-3.07-2.56-6.41-2.57-9.94-.02-7.14,0-21.74,.02-21.92,8.96-.69,16.85-3.62,22.89-10.55,6.04,6.94,13.94,9.86,22.92,10.56Z"/><circle class="cls-2" cx="50" cy="33.76" r="15.01"/><rect class="cls-2" x="42.66" y="29.87" width="14.69" height="10.96" rx="1.25" ry="1.25"/><path class="cls-2" d="M46.37,30.27v-3.76c0-1.56,1.26-2.82,2.82-2.82h1.62c1.56,0,2.82,1.26,2.82,2.82v3.76"/><g><circle class="cls-1" cx="50" cy="34.11" r="1.8"/><rect class="cls-1" x="49.06" y="34.11" width="1.88" height="4.76" rx=".94" ry=".94"/></g></svg>