<svg xmlns="http://www.w3.org/2000/svg" id="Layer_1" viewBox="0 0 100 100"><defs><style>.cls-1{fill:none;stroke:#5384fb;stroke-miterlimit:10;stroke-width:2px;}</style></defs><g><path class="cls-1" d="M9.62,42.96l2.45,2.56c.32,.33,.58,.72,.77,1.15l4.34,9.65c.19,.43,.45,.82,.77,1.15l24.65,25.78c1.53,1.6,4.01,1.6,5.54,0h0c1.53-1.6,1.53-4.19,0-5.79l-12.85-13.44h.01l12.85,13.43c1.53,1.6,4.01,1.6,5.54,0h0c1.53-1.6,1.53-4.19,0-5.79l-12.85-13.44,16.51,17.25c1.53,1.6,4.01,1.6,5.54,0h0c1.53-1.6,1.53-4.19,0-5.79l-16.54-17.3,12.85,13.44c1.53,1.6,4.01,1.6,5.54,0h0c1.53-1.6,1.53-4.19,0-5.79l-21.7-22.69-.28-.29,11.07,11.58c1.53,1.6,4.01,1.6,5.54,0l1.28-1.34c1.53-1.6,1.53-4.19,0-5.79l-13.22-13.82c-.71-.75-1.68-1.18-2.69-1.2l-10.79-.24c-1.01-.02-1.97-.45-2.69-1.2l-2.25-2.35L9.62,42.96Z"/><path class="cls-1" d="M5.01,43.94l-1.66-1.74c-1.02-1.06-1.02-2.78,0-3.84L24.39,16.34c1.02-1.06,2.66-1.06,3.68,0l1.66,1.74c1.02,1.06,1.02,2.78,0,3.84L8.69,43.94c-1.02,1.06-2.66,1.06-3.68,0Z"/><path class="cls-1" d="M43.7,36.93c-3.19,3.34-8.36,3.34-11.55,0"/></g><g><path class="cls-1" d="M50,30.33l2.56-2.67c.71-.75,1.68-1.18,2.69-1.2l10.79-.24c1.01-.02,1.97-.45,2.69-1.2l2.25-2.35,19.41,20.3-2.45,2.56c-.32,.33-.58,.72-.77,1.15l-4.34,9.65c-.19,.43-.45,.82-.77,1.15l-24.65,25.78c-1.53,1.6-4.01,1.6-5.54,0h0c-1.07-1.12-1.39-2.74-.96-4.15"/><path class="cls-1" d="M94.99,43.94l1.66-1.74c1.02-1.06,1.02-2.78,0-3.84l-21.04-22.01c-1.02-1.06-2.66-1.06-3.68,0l-1.66,1.74c-1.02,1.06-1.02,2.78,0,3.84l21.04,22.01c1.02,1.06,2.66,1.06,3.68,0Z"/><path class="cls-1" d="M56.3,36.93c3.19,3.34,8.36,3.34,11.55,0"/></g></svg>