<svg xmlns="http://www.w3.org/2000/svg" id="Layer_1" viewBox="0 0 100 100"><defs><style>.cls-1{fill:none;stroke:#5384fb;stroke-miterlimit:10;stroke-width:2px;}</style></defs><g><path class="cls-1" d="M15.04,91.22l46.88-.1c2.46,0,4.81-.76,6.81-2.18l19.69-14.09c.97-.69,1.92-1.47,2.83-2.31,.38-.35,.76-.69,1.14-1.03,1.09-.97,2.13-1.89,3.05-3,.89-1.06,1.62-2.33,2.12-3.67,.69-1.87-.2-3.48-1.18-4.29-1.21-1-2.72-1.13-4.03-.33-.02,.01-22.63,14.03-22.63,14.03l-3.63-.11-1.53-2.05c-2.63-3.51-6.24-6.09-10.44-7.27-3.63-1.02-7.35-1.63-11.08-2.12-3.64-.49-6.67-.87-10.25,.21l-17.51,5.17-.23,23.14Z"/><path class="cls-1" d="M2.19,59.85l.05,37.24H10.91c2.28-.01,4.14-1.88,4.14-4.16l-.04-28.95c0-2.28-1.87-4.14-4.15-4.14H2.19Z"/><path class="cls-1" d="M69.36,74.3c-.16,0-33.11-1.53-33.11-1.53"/></g><line class="cls-1" x1="28.23" y1="64.25" x2="28.23" y2="50.06"/><line class="cls-1" x1="65.59" y1="50.06" x2="65.59" y2="73.53"/><line class="cls-1" x1="28.23" y1="38.74" x2="65.59" y2="38.74"/><polygon class="cls-1" points="41.53 50.06 22.02 50.06 27.96 38.74 47.47 38.74 41.53 50.06"/><polygon class="cls-1" points="66.02 38.74 46.51 38.74 52.45 50.06 71.96 50.06 66.02 38.74"/><line class="cls-1" x1="46.91" y1="39.89" x2="46.91" y2="62.29"/><g><polygon class="cls-1" points="50.32 9.83 57.95 10.96 52.42 16.33 53.71 23.93 46.89 20.33 40.05 23.91 41.37 16.31 35.86 10.91 43.49 9.82 46.92 2.91 50.32 9.83"/><polygon class="cls-1" points="24.49 21.95 29.36 22.66 25.83 26.09 26.65 30.94 22.3 28.65 17.94 30.93 18.78 26.08 15.26 22.64 20.14 21.94 22.32 17.53 24.49 21.95"/><polygon class="cls-1" points="73.68 21.95 78.55 22.66 75.02 26.09 75.84 30.94 71.49 28.65 67.12 30.93 67.97 26.08 64.45 22.64 69.32 21.94 71.51 17.53 73.68 21.95"/></g></svg>