<svg xmlns="http://www.w3.org/2000/svg" id="Layer_1" viewBox="0 0 100 100"><defs><style>.cls-1{fill:none;stroke:#5384fb;stroke-miterlimit:10;stroke-width:2px;}</style></defs><g><circle class="cls-1" cx="50.15" cy="50.06" r="40.08"/><circle class="cls-1" cx="50.15" cy="50.14" r="21.35"/><g><polyline class="cls-1" points="60.77 31.61 61.19 31.61 65.44 13.01"/><polyline class="cls-1" points="34.85 13.01 39.11 31.61 39.53 31.61"/><line class="cls-1" x1="39.05" y1="68.39" x2="34.78" y2="87.08"/><line class="cls-1" x1="65.52" y1="87.08" x2="61.25" y2="68.39"/></g><g><polyline class="cls-1" points="68.41 61.22 68.41 61.51 87.03 65.77 87.04 65.77"/><line class="cls-1" x1="87.34" y1="35.1" x2="68.61" y2="39.39"/><line class="cls-1" x1="31.7" y1="39.39" x2="12.96" y2="35.1"/><polyline class="cls-1" points="13.27 65.77 13.27 65.77 31.89 61.51 31.89 61.22"/></g></g><g><path class="cls-1" d="M87.04,34.96c6.38,1.43,11.17,7.15,11.17,13.93v2.94c0,6.78-4.8,12.51-11.17,13.93"/><path class="cls-1" d="M12.96,65.77c-6.38-1.43-11.17-7.15-11.17-13.93v-2.94c0-6.78,4.8-12.51,11.17-13.93"/></g><g><path class="cls-1" d="M34.75,12.96c1.43-6.38,7.15-11.17,13.93-11.17h2.94c6.78,0,12.51,4.8,13.93,11.17"/><path class="cls-1" d="M65.56,87.04c-1.43,6.38-7.15,11.17-13.93,11.17h-2.94c-6.78,0-12.51-4.8-13.93-11.17"/></g></svg>