<svg xmlns="http://www.w3.org/2000/svg" id="Layer_1" viewBox="0 0 100 100"><defs><style>.cls-1{fill:#5384fb;}.cls-2{stroke-miterlimit:10;}.cls-2,.cls-3{fill:none;stroke:#5384fb;stroke-width:2px;}.cls-3{stroke-linejoin:round;}</style></defs><g><polyline class="cls-3" points="79.82 32.54 93.12 45.55 75.89 45.55 75.89 32.54"/><path class="cls-2" d="M54.33,28.7h-8.08c-.88,0-1.6,.7-1.6,1.57v61.49c0,.87,.72,1.57,1.6,1.57h45.27c.88,0,1.6-.7,1.6-1.57V45.55l-13.3-13"/><g><line class="cls-2" x1="86.25" y1="56.07" x2="62.16" y2="56.07"/><g><polygon class="cls-1" points="59.73 51.76 56.21 56.11 54.86 57.78 52.69 60.46 50 60.46 53.52 56.11 54.86 54.44 57.09 51.69 59.64 51.69 59.73 51.76"/><polygon class="cls-1" points="59.72 60.46 57.03 60.46 54.86 57.78 53.52 56.11 49.99 51.76 50.09 51.69 52.62 51.69 54.86 54.44 56.21 56.11 59.72 60.46"/></g></g><g><line class="cls-2" x1="86.25" y1="70.01" x2="62.16" y2="70.01"/><polygon class="cls-1" points="60.78 65.62 55.91 74.39 54.28 74.39 50.24 68.18 50.28 68.15 52.88 68.15 55 71.98 58.32 65.62 60.78 65.62"/></g><g><line class="cls-2" x1="86.25" y1="83.94" x2="62.16" y2="83.94"/><polygon class="cls-1" points="60.78 79.55 55.91 88.33 54.28 88.33 50.24 82.11 50.28 82.08 52.88 82.08 55 85.91 58.32 79.55 60.78 79.55"/></g><polyline class="cls-2" points="83.98 24.48 97.94 24.48 97.94 97.96 39.82 97.96 39.82 24.48 53.79 24.48"/><rect class="cls-2" x="54.33" y="20.69" width="29.1" height="11.85"/></g><path class="cls-2" d="M22.01,19.19h6.22L15.24,2.24,2.26,19.19h6.22c0,16.32,9.32,34.44,29.02,34.44,0,0-15.48-9.91-15.48-34.44Z"/></svg>