<svg xmlns="http://www.w3.org/2000/svg" id="Layer_1" viewBox="0 0 100 100"><defs><style>.cls-1{fill:none;stroke:#5384fb;stroke-miterlimit:10;stroke-width:2px;}</style></defs><path class="cls-1" d="M20.65,54.28h5.66c1.01-2.42,4.72-9.83,13.95-15.11,1.63-.93,1.99-3.85,2.34-6.68,.48-3.89,1.07-8.73,5.86-8.73,2.73,0,5.27,1.95,6.8,5.22,2.01,4.3,2.47,11.61-2.87,18.02-2.18,2.61-1.93,4.77-1.64,5.75h12.97c6.88,0,10.54,3.62,11.12,7.21,.3,1.81-.2,3.45-1.28,4.55,1.48,1.22,2.36,3.17,2.36,5.4s-.89,4.18-2.36,5.4c1.28,1.28,1.85,3.3,1.48,5.57-.38,2.32-1.87,4.79-4.37,5.76,.9,1.28,1.16,2.79,.7,4.33-.79,2.62-3.94,5.26-9.18,5.26h-19.83c-12.02,0-15.35-7.87-16.16-10.68h-5.54"/><rect class="cls-1" x="3.11" y="52.75" width="17.55" height="34.33" rx="1.14" ry="1.14"/><polygon class="cls-1" points="85.15 14.42 96.89 16.15 88.38 24.41 90.36 36.12 79.87 30.57 69.35 36.07 71.38 24.38 62.9 16.08 74.65 14.4 79.92 3.76 85.15 14.42"/></svg>